<svg width="2000" height="580" viewBox="660 0 200 366" fill="none" xmlns="http://www.w3.org/2000/svg">
<path opacity="0.3" fill-rule="evenodd" clip-rule="evenodd" d="M-18 307.709L17.5615 281.521C57.0744 255.333 128.197 202.957 203.272 196.41C274.395 193.137 349.469 229.145 420.592 235.692C495.667 242.239 570.741 216.051 641.864 202.957C716.938 193.137 788.062 193.137 863.136 209.504C934.259 229.145 1009.33 268.427 1084.41 268.427C1155.53 268.427 1230.61 229.145 1301.73 180.043C1376.8 127.667 1447.93 65.4701 1487.44 32.735L1523 0V383H1487.44C1447.93 383 1376.8 383 1301.73 383C1230.61 383 1155.53 383 1084.41 383C1009.33 383 934.259 383 863.136 383C788.062 383 716.938 383 641.864 383C570.741 383 495.667 383 420.592 383C349.469 383 274.395 383 203.272 383C128.197 383 57.0744 383 17.5615 383H-18V307.709Z" fill="#0099FF"/>
</svg>
